<svg width="151" height="20" viewBox="0 0 151 20" fill="none" xmlns="http://www.w3.org/2000/svg">
<g opacity="0.65">
<path d="M1.05682 14V5.27273H4.00568C4.69034 5.27273 5.25 5.39631 5.68466 5.64347C6.12216 5.88778 6.44602 6.21875 6.65625 6.63636C6.86648 7.05398 6.97159 7.51989 6.97159 8.03409C6.97159 8.5483 6.86648 9.01562 6.65625 9.43608C6.44886 9.85653 6.12784 10.1918 5.69318 10.4418C5.25852 10.6889 4.7017 10.8125 4.02273 10.8125H1.90909V9.875H3.98864C4.45739 9.875 4.83381 9.79403 5.1179 9.6321C5.40199 9.47017 5.60795 9.25142 5.7358 8.97585C5.86648 8.69744 5.93182 8.38352 5.93182 8.03409C5.93182 7.68466 5.86648 7.37216 5.7358 7.09659C5.60795 6.82102 5.40057 6.60511 5.11364 6.44886C4.8267 6.28977 4.44602 6.21023 3.97159 6.21023H2.11364V14H1.05682ZM11.1264 14.1364C10.5355 14.1364 10.017 13.9957 9.57102 13.7145C9.12784 13.4332 8.78125 13.0398 8.53125 12.5341C8.28409 12.0284 8.16051 11.4375 8.16051 10.7614C8.16051 10.0795 8.28409 9.48437 8.53125 8.97585C8.78125 8.46733 9.12784 8.07244 9.57102 7.79119C10.017 7.50994 10.5355 7.36932 11.1264 7.36932C11.7173 7.36932 12.2344 7.50994 12.6776 7.79119C13.1236 8.07244 13.4702 8.46733 13.7173 8.97585C13.9673 9.48437 14.0923 10.0795 14.0923 10.7614C14.0923 11.4375 13.9673 12.0284 13.7173 12.5341C13.4702 13.0398 13.1236 13.4332 12.6776 13.7145C12.2344 13.9957 11.7173 14.1364 11.1264 14.1364ZM11.1264 13.233C11.5753 13.233 11.9446 13.1179 12.2344 12.8878C12.5241 12.6577 12.7386 12.3551 12.8778 11.9801C13.017 11.6051 13.0866 11.1989 13.0866 10.7614C13.0866 10.3239 13.017 9.91619 12.8778 9.53835C12.7386 9.16051 12.5241 8.85511 12.2344 8.62216C11.9446 8.3892 11.5753 8.27273 11.1264 8.27273C10.6776 8.27273 10.3082 8.3892 10.0185 8.62216C9.72869 8.85511 9.5142 9.16051 9.375 9.53835C9.2358 9.91619 9.16619 10.3239 9.16619 10.7614C9.16619 11.1989 9.2358 11.6051 9.375 11.9801C9.5142 12.3551 9.72869 12.6577 10.0185 12.8878C10.3082 13.1179 10.6776 13.233 11.1264 13.233ZM16.8878 14L14.8935 7.45455H15.9503L17.3651 12.4659H17.4332L18.831 7.45455H19.9048L21.2855 12.4489H21.3537L22.7685 7.45455H23.8253L21.831 14H20.8423L19.4105 8.97159H19.3082L17.8764 14H16.8878ZM27.6765 14.1364C27.0458 14.1364 26.5018 13.9972 26.0444 13.7188C25.5898 13.4375 25.239 13.0455 24.9918 12.5426C24.7475 12.0369 24.6254 11.4489 24.6254 10.7784C24.6254 10.108 24.7475 9.51705 24.9918 9.00568C25.239 8.49148 25.5827 8.09091 26.0231 7.80398C26.4663 7.5142 26.9833 7.36932 27.5742 7.36932C27.9151 7.36932 28.2518 7.42614 28.5842 7.53977C28.9165 7.65341 29.2191 7.83807 29.4918 8.09375C29.7646 8.34659 29.9819 8.68182 30.1438 9.09943C30.3058 9.51705 30.3867 10.0312 30.3867 10.642V11.0682H25.3413V10.1989H29.364C29.364 9.82955 29.2901 9.5 29.1424 9.21023C28.9975 8.92045 28.7901 8.69176 28.5202 8.52415C28.2532 8.35653 27.9379 8.27273 27.5742 8.27273C27.1737 8.27273 26.8271 8.37216 26.5344 8.57102C26.2447 8.76705 26.0217 9.02273 25.8654 9.33807C25.7092 9.65341 25.631 9.99148 25.631 10.3523V10.9318C25.631 11.4261 25.7163 11.8452 25.8867 12.1889C26.06 12.5298 26.3001 12.7898 26.6069 12.9688C26.9137 13.1449 27.2702 13.233 27.6765 13.233C27.9407 13.233 28.1793 13.196 28.3924 13.1222C28.6083 13.0455 28.7944 12.9318 28.9506 12.7812C29.1069 12.6278 29.2276 12.4375 29.3129 12.2102L30.2844 12.483C30.1822 12.8125 30.0103 13.1023 29.7688 13.3523C29.5273 13.5994 29.229 13.7926 28.8739 13.9318C28.5188 14.0682 28.1197 14.1364 27.6765 14.1364ZM31.9165 14V7.45455H32.8881V8.44318H32.9563C33.0756 8.11932 33.2915 7.85653 33.604 7.65483C33.9165 7.45312 34.2688 7.35227 34.6609 7.35227C34.7347 7.35227 34.8271 7.35369 34.9379 7.35653C35.0487 7.35937 35.1325 7.36364 35.1893 7.36932V8.39205C35.1552 8.38352 35.0771 8.37074 34.9549 8.35369C34.8356 8.33381 34.7092 8.32386 34.5756 8.32386C34.2575 8.32386 33.9734 8.39062 33.7234 8.52415C33.4762 8.65483 33.2802 8.83665 33.1353 9.0696C32.9933 9.29972 32.9222 9.5625 32.9222 9.85795V14H31.9165ZM38.9265 14.1364C38.2958 14.1364 37.7518 13.9972 37.2944 13.7188C36.8398 13.4375 36.489 13.0455 36.2418 12.5426C35.9975 12.0369 35.8754 11.4489 35.8754 10.7784C35.8754 10.108 35.9975 9.51705 36.2418 9.00568C36.489 8.49148 36.8327 8.09091 37.2731 7.80398C37.7163 7.5142 38.2333 7.36932 38.8242 7.36932C39.1651 7.36932 39.5018 7.42614 39.8342 7.53977C40.1665 7.65341 40.4691 7.83807 40.7418 8.09375C41.0146 8.34659 41.2319 8.68182 41.3938 9.09943C41.5558 9.51705 41.6367 10.0312 41.6367 10.642V11.0682H36.5913V10.1989H40.614C40.614 9.82955 40.5401 9.5 40.3924 9.21023C40.2475 8.92045 40.0401 8.69176 39.7702 8.52415C39.5032 8.35653 39.1879 8.27273 38.8242 8.27273C38.4237 8.27273 38.0771 8.37216 37.7844 8.57102C37.4947 8.76705 37.2717 9.02273 37.1154 9.33807C36.9592 9.65341 36.881 9.99148 36.881 10.3523V10.9318C36.881 11.4261 36.9663 11.8452 37.1367 12.1889C37.31 12.5298 37.5501 12.7898 37.8569 12.9688C38.1637 13.1449 38.5202 13.233 38.9265 13.233C39.1907 13.233 39.4293 13.196 39.6424 13.1222C39.8583 13.0455 40.0444 12.9318 40.2006 12.7812C40.3569 12.6278 40.4776 12.4375 40.5629 12.2102L41.5344 12.483C41.4322 12.8125 41.2603 13.1023 41.0188 13.3523C40.7773 13.5994 40.479 13.7926 40.1239 13.9318C39.7688 14.0682 39.3697 14.1364 38.9265 14.1364ZM45.6381 14.1364C45.0927 14.1364 44.6112 13.9986 44.1935 13.723C43.7759 13.4446 43.4492 13.0526 43.2134 12.5469C42.9776 12.0384 42.8597 11.4375 42.8597 10.7443C42.8597 10.0568 42.9776 9.46023 43.2134 8.95455C43.4492 8.44886 43.7773 8.05824 44.1978 7.78267C44.6183 7.5071 45.104 7.36932 45.6552 7.36932C46.0813 7.36932 46.418 7.44034 46.6651 7.58239C46.9151 7.72159 47.1055 7.88068 47.2362 8.05966C47.3697 8.2358 47.4734 8.38068 47.5472 8.49432H47.6325V5.27273H48.6381V14H47.6665V12.9943H47.5472C47.4734 13.1136 47.3683 13.2642 47.2319 13.446C47.0955 13.625 46.9009 13.7855 46.6481 13.9276C46.3952 14.0668 46.0586 14.1364 45.6381 14.1364ZM45.7745 13.233C46.1779 13.233 46.5188 13.1278 46.7972 12.9176C47.0756 12.7045 47.2873 12.4105 47.4322 12.0355C47.5771 11.6577 47.6495 11.2216 47.6495 10.7273C47.6495 10.2386 47.5785 9.81108 47.4364 9.4446C47.2944 9.07528 47.0842 8.78835 46.8058 8.58381C46.5273 8.37642 46.1836 8.27273 45.7745 8.27273C45.3484 8.27273 44.9933 8.3821 44.7092 8.60085C44.4279 8.81676 44.2163 9.1108 44.0742 9.48295C43.935 9.85227 43.8654 10.267 43.8654 10.7273C43.8654 11.1932 43.9364 11.6165 44.0785 11.9972C44.2234 12.375 44.4364 12.6761 44.7177 12.9006C45.0018 13.1222 45.354 13.233 45.7745 13.233ZM54.131 14V5.27273H55.1367V8.49432H55.2219C55.2958 8.38068 55.3981 8.2358 55.5288 8.05966C55.6623 7.88068 55.8526 7.72159 56.0998 7.58239C56.3498 7.44034 56.6879 7.36932 57.114 7.36932C57.6651 7.36932 58.1509 7.5071 58.5714 7.78267C58.9918 8.05824 59.32 8.44886 59.5558 8.95455C59.7915 9.46023 59.9094 10.0568 59.9094 10.7443C59.9094 11.4375 59.7915 12.0384 59.5558 12.5469C59.32 13.0526 58.9933 13.4446 58.5756 13.723C58.158 13.9986 57.6765 14.1364 57.131 14.1364C56.7106 14.1364 56.3739 14.0668 56.1211 13.9276C55.8683 13.7855 55.6737 13.625 55.5373 13.446C55.4009 13.2642 55.2958 13.1136 55.2219 12.9943H55.1026V14H54.131ZM55.1197 10.7273C55.1197 11.2216 55.1921 11.6577 55.337 12.0355C55.4819 12.4105 55.6935 12.7045 55.9719 12.9176C56.2504 13.1278 56.5913 13.233 56.9947 13.233C57.4151 13.233 57.766 13.1222 58.0472 12.9006C58.3313 12.6761 58.5444 12.375 58.6864 11.9972C58.8313 11.6165 58.9038 11.1932 58.9038 10.7273C58.9038 10.267 58.8327 9.85227 58.6907 9.48295C58.5515 9.1108 58.3398 8.81676 58.0558 8.60085C57.7745 8.3821 57.4208 8.27273 56.9947 8.27273C56.5856 8.27273 56.2418 8.37642 55.9634 8.58381C55.685 8.78835 55.4748 9.07528 55.3327 9.4446C55.1907 9.81108 55.1197 10.2386 55.1197 10.7273ZM61.8612 16.4545C61.6907 16.4545 61.5387 16.4403 61.4052 16.4119C61.2717 16.3864 61.1793 16.3608 61.1282 16.3352L61.3839 15.4489C61.6282 15.5114 61.8441 15.5341 62.0316 15.517C62.2191 15.5 62.3853 15.4162 62.5302 15.2656C62.6779 15.1179 62.8129 14.8778 62.935 14.5455L63.1225 14.0341L60.7021 7.45455H61.793L63.5998 12.6705H63.668L65.4748 7.45455H66.5657L63.7873 14.9545C63.6623 15.2926 63.5075 15.5724 63.3228 15.794C63.1381 16.0185 62.9237 16.1847 62.6793 16.2926C62.4379 16.4006 62.1651 16.4545 61.8612 16.4545Z" fill="white"/>
<path fill-rule="evenodd" clip-rule="evenodd" d="M79.0894 7.25817C81.0028 7.25817 82.5539 5.72104 82.5539 3.8249C82.5539 3.70432 82.5476 3.58519 82.5354 3.46781L82.5356 3.46785C82.534 3.4502 82.5331 3.43233 82.5331 3.41426C82.5331 3.09719 82.7925 2.84015 83.1125 2.84015L83.1197 2.84016H85.1789L85.1829 2.84015L85.1868 2.84016H85.1923C85.5079 2.84516 85.7622 3.10031 85.7622 3.41426C85.7622 3.53392 85.7253 3.64503 85.662 3.737C85.66 3.74003 85.6579 3.74305 85.6557 3.74604L78.4449 13.9384L78.4464 13.9396C77.9265 14.5401 77.6124 15.3207 77.6124 16.174C77.6124 18.0702 79.1634 19.6073 81.0768 19.6073C82.2903 19.6073 83.358 18.989 83.9768 18.0531L92.6023 5.88677C93.0381 5.31264 93.2964 4.59866 93.2964 3.8249C93.2964 1.93764 91.7598 0.405937 89.8588 0.391632C89.8528 0.391586 89.8468 0.391602 89.8409 0.391617C89.8379 0.391624 89.8349 0.391632 89.8319 0.391632H79.1163C79.1103 0.391586 79.1044 0.391602 79.0984 0.391617C79.0954 0.391624 79.0924 0.391632 79.0894 0.391632C77.1761 0.391632 75.625 1.92876 75.625 3.8249C75.625 5.72104 77.1761 7.25817 79.0894 7.25817ZM90.7447 19.6072H85.0879L89.9561 12.7407H90.7447C90.7504 12.7407 90.7561 12.7407 90.7618 12.7407C90.7645 12.7407 90.7672 12.7407 90.77 12.7407C92.6717 12.7541 94.2092 14.2862 94.2092 16.174C94.2092 18.0618 92.6717 19.5938 90.77 19.6072C90.7644 19.6073 90.7588 19.6073 90.7532 19.6072C90.7504 19.6072 90.7475 19.6072 90.7447 19.6072ZM79.5094 19.6072L79.4907 19.5932V19.6072H79.5094Z" fill="white"/>
<path d="M103.968 13.348H108.364V15H101.7V13.488L106.068 6.88H101.7V5.228H108.364V6.74L103.968 13.348ZM117.354 7.244V15H115.38V14.02C115.128 14.356 114.797 14.622 114.386 14.818C113.985 15.0047 113.546 15.098 113.07 15.098C112.464 15.098 111.927 14.972 111.46 14.72C110.994 14.4587 110.625 14.0807 110.354 13.586C110.093 13.082 109.962 12.4847 109.962 11.794V7.244H111.922V11.514C111.922 12.13 112.076 12.606 112.384 12.942C112.692 13.2687 113.112 13.432 113.644 13.432C114.186 13.432 114.61 13.2687 114.918 12.942C115.226 12.606 115.38 12.13 115.38 11.514V7.244H117.354ZM123.586 7.132C124.51 7.132 125.257 7.426 125.826 8.014C126.396 8.59267 126.68 9.40467 126.68 10.45V15H124.72V10.716C124.72 10.1 124.566 9.62867 124.258 9.302C123.95 8.966 123.53 8.798 122.998 8.798C122.457 8.798 122.028 8.966 121.71 9.302C121.402 9.62867 121.248 10.1 121.248 10.716V15H119.288V7.244H121.248V8.21C121.51 7.874 121.841 7.61267 122.242 7.426C122.653 7.23 123.101 7.132 123.586 7.132ZM129.538 6.32C129.193 6.32 128.903 6.21267 128.67 5.998C128.446 5.774 128.334 5.49867 128.334 5.172C128.334 4.84533 128.446 4.57467 128.67 4.36C128.903 4.136 129.193 4.024 129.538 4.024C129.883 4.024 130.168 4.136 130.392 4.36C130.625 4.57467 130.742 4.84533 130.742 5.172C130.742 5.49867 130.625 5.774 130.392 5.998C130.168 6.21267 129.883 6.32 129.538 6.32ZM130.504 7.244V15H128.544V7.244H130.504ZM131.937 11.094C131.937 10.31 132.091 9.61467 132.399 9.008C132.716 8.40133 133.145 7.93467 133.687 7.608C134.228 7.28133 134.83 7.118 135.493 7.118C135.997 7.118 136.477 7.23 136.935 7.454C137.392 7.66867 137.756 7.958 138.027 8.322V4.64H140.015V15H138.027V13.852C137.784 14.2347 137.443 14.5427 137.005 14.776C136.566 15.0093 136.057 15.126 135.479 15.126C134.825 15.126 134.228 14.958 133.687 14.622C133.145 14.286 132.716 13.8147 132.399 13.208C132.091 12.592 131.937 11.8873 131.937 11.094ZM138.041 11.122C138.041 10.646 137.947 10.24 137.761 9.904C137.574 9.55867 137.322 9.29733 137.005 9.12C136.687 8.93333 136.347 8.84 135.983 8.84C135.619 8.84 135.283 8.92867 134.975 9.106C134.667 9.28333 134.415 9.54467 134.219 9.89C134.032 10.226 133.939 10.6273 133.939 11.094C133.939 11.5607 134.032 11.9713 134.219 12.326C134.415 12.6713 134.667 12.9373 134.975 13.124C135.292 13.3107 135.628 13.404 135.983 13.404C136.347 13.404 136.687 13.3153 137.005 13.138C137.322 12.9513 137.574 12.69 137.761 12.354C137.947 12.0087 138.041 11.598 138.041 11.122ZM141.425 11.094C141.425 10.31 141.579 9.61467 141.887 9.008C142.204 8.40133 142.629 7.93467 143.161 7.608C143.702 7.28133 144.304 7.118 144.967 7.118C145.546 7.118 146.05 7.23467 146.479 7.468C146.918 7.70133 147.268 7.99533 147.529 8.35V7.244H149.503V15H147.529V13.866C147.277 14.23 146.927 14.5333 146.479 14.776C146.04 15.0093 145.532 15.126 144.953 15.126C144.3 15.126 143.702 14.958 143.161 14.622C142.629 14.286 142.204 13.8147 141.887 13.208C141.579 12.592 141.425 11.8873 141.425 11.094ZM147.529 11.122C147.529 10.646 147.436 10.24 147.249 9.904C147.062 9.55867 146.81 9.29733 146.493 9.12C146.176 8.93333 145.835 8.84 145.471 8.84C145.107 8.84 144.771 8.92867 144.463 9.106C144.155 9.28333 143.903 9.54467 143.707 9.89C143.52 10.226 143.427 10.6273 143.427 11.094C143.427 11.5607 143.52 11.9713 143.707 12.326C143.903 12.6713 144.155 12.9373 144.463 13.124C144.78 13.3107 145.116 13.404 145.471 13.404C145.835 13.404 146.176 13.3153 146.493 13.138C146.81 12.9513 147.062 12.69 147.249 12.354C147.436 12.0087 147.529 11.598 147.529 11.122Z" fill="white"/>
</g>
</svg>
