<svg width="178" height="20" viewBox="0 0 178 20" fill="none" xmlns="http://www.w3.org/2000/svg">
<path d="M3.75 14H1.05682V5.27273H3.86932C4.71591 5.27273 5.44034 5.44744 6.04261 5.79688C6.64489 6.14347 7.10653 6.64205 7.42756 7.29261C7.74858 7.94034 7.90909 8.71591 7.90909 9.61932C7.90909 10.5284 7.74716 11.3111 7.4233 11.9673C7.09943 12.6207 6.62784 13.1236 6.00852 13.4759C5.3892 13.8253 4.63636 14 3.75 14ZM2.11364 13.0625H3.68182C4.40341 13.0625 5.00142 12.9233 5.47585 12.6449C5.95028 12.3665 6.30398 11.9702 6.53693 11.456C6.76989 10.9418 6.88636 10.3295 6.88636 9.61932C6.88636 8.91477 6.77131 8.30824 6.54119 7.79972C6.31108 7.28835 5.96733 6.89631 5.50994 6.62358C5.05256 6.34801 4.48295 6.21023 3.80114 6.21023H2.11364V13.0625ZM12.2898 14.1364C11.6591 14.1364 11.1151 13.9972 10.6577 13.7188C10.2031 13.4375 9.85227 13.0455 9.60511 12.5426C9.3608 12.0369 9.23864 11.4489 9.23864 10.7784C9.23864 10.108 9.3608 9.51705 9.60511 9.00568C9.85227 8.49148 10.196 8.09091 10.6364 7.80398C11.0795 7.5142 11.5966 7.36932 12.1875 7.36932C12.5284 7.36932 12.8651 7.42614 13.1974 7.53977C13.5298 7.65341 13.8324 7.83807 14.1051 8.09375C14.3778 8.34659 14.5952 8.68182 14.7571 9.09943C14.919 9.51705 15 10.0312 15 10.642V11.0682H9.95455V10.1989H13.9773C13.9773 9.82955 13.9034 9.5 13.7557 9.21023C13.6108 8.92045 13.4034 8.69176 13.1335 8.52415C12.8665 8.35653 12.5511 8.27273 12.1875 8.27273C11.7869 8.27273 11.4403 8.37216 11.1477 8.57102C10.858 8.76705 10.6349 9.02273 10.4787 9.33807C10.3224 9.65341 10.2443 9.99148 10.2443 10.3523V10.9318C10.2443 11.4261 10.3295 11.8452 10.5 12.1889C10.6733 12.5298 10.9134 12.7898 11.2202 12.9688C11.527 13.1449 11.8835 13.233 12.2898 13.233C12.554 13.233 12.7926 13.196 13.0057 13.1222C13.2216 13.0455 13.4077 12.9318 13.5639 12.7812C13.7202 12.6278 13.8409 12.4375 13.9261 12.2102L14.8977 12.483C14.7955 12.8125 14.6236 13.1023 14.3821 13.3523C14.1406 13.5994 13.8423 13.7926 13.4872 13.9318C13.1321 14.0682 12.733 14.1364 12.2898 14.1364ZM21.1662 8.92045L20.2628 9.17614C20.206 9.02557 20.1222 8.87926 20.0114 8.73722C19.9034 8.59233 19.7557 8.47301 19.5682 8.37926C19.3807 8.28551 19.1406 8.23864 18.848 8.23864C18.4474 8.23864 18.1136 8.33097 17.8466 8.51562C17.5824 8.69744 17.4503 8.92898 17.4503 9.21023C17.4503 9.46023 17.5412 9.65767 17.723 9.80256C17.9048 9.94744 18.1889 10.0682 18.5753 10.1648L19.5469 10.4034C20.1321 10.5455 20.5682 10.7628 20.8551 11.0554C21.142 11.3452 21.2855 11.7187 21.2855 12.1761C21.2855 12.5511 21.1776 12.8864 20.9616 13.1818C20.7486 13.4773 20.4503 13.7102 20.0668 13.8807C19.6832 14.0511 19.2372 14.1364 18.7287 14.1364C18.0611 14.1364 17.5085 13.9915 17.071 13.7017C16.6335 13.4119 16.3565 12.9886 16.2401 12.4318L17.1946 12.1932C17.2855 12.5455 17.4574 12.8097 17.7102 12.9858C17.9659 13.1619 18.2997 13.25 18.7116 13.25C19.1804 13.25 19.5526 13.1506 19.8281 12.9517C20.1065 12.75 20.2457 12.5085 20.2457 12.2273C20.2457 12 20.1662 11.8097 20.0071 11.6562C19.848 11.5 19.6037 11.3835 19.2741 11.3068L18.1832 11.0511C17.5838 10.9091 17.1435 10.6889 16.8622 10.3906C16.5838 10.0895 16.4446 9.71307 16.4446 9.26136C16.4446 8.89205 16.5483 8.56534 16.7557 8.28125C16.9659 7.99716 17.2514 7.77415 17.6122 7.61222C17.9759 7.45028 18.3878 7.36932 18.848 7.36932C19.4957 7.36932 20.0043 7.51136 20.3736 7.79545C20.7457 8.07955 21.0099 8.45455 21.1662 8.92045ZM24.7255 14.1534C24.3107 14.1534 23.9343 14.0753 23.5962 13.919C23.2582 13.7599 22.9897 13.5312 22.7908 13.233C22.592 12.9318 22.4925 12.5682 22.4925 12.142C22.4925 11.767 22.5664 11.4631 22.7141 11.2301C22.8619 10.9943 23.0593 10.8097 23.3065 10.6761C23.5536 10.5426 23.8263 10.4432 24.1246 10.3778C24.4258 10.3097 24.7283 10.2557 25.0323 10.2159C25.43 10.1648 25.7525 10.1264 25.9996 10.1009C26.2496 10.0724 26.4315 10.0256 26.5451 9.96023C26.6616 9.89489 26.7198 9.78125 26.7198 9.61932V9.58523C26.7198 9.16477 26.6048 8.83807 26.3746 8.60511C26.1474 8.37216 25.8022 8.25568 25.3391 8.25568C24.859 8.25568 24.4826 8.3608 24.2099 8.57102C23.9371 8.78125 23.7454 9.00568 23.6346 9.24432L22.68 8.90341C22.8505 8.50568 23.0778 8.19602 23.3619 7.97443C23.6488 7.75 23.9613 7.59375 24.2994 7.50568C24.6403 7.41477 24.9755 7.36932 25.305 7.36932C25.5153 7.36932 25.7567 7.39489 26.0295 7.44602C26.305 7.49432 26.5707 7.59517 26.8263 7.74858C27.0849 7.90199 27.2994 8.13352 27.4698 8.44318C27.6403 8.75284 27.7255 9.16761 27.7255 9.6875V14H26.7198V13.1136H26.6687C26.6005 13.2557 26.4869 13.4077 26.3278 13.5696C26.1687 13.7315 25.957 13.8693 25.6928 13.983C25.4286 14.0966 25.1062 14.1534 24.7255 14.1534ZM24.8789 13.25C25.2766 13.25 25.6119 13.1719 25.8846 13.0156C26.1602 12.8594 26.3675 12.6577 26.5067 12.4105C26.6488 12.1634 26.7198 11.9034 26.7198 11.6307V10.7102C26.6772 10.7614 26.5835 10.8082 26.4386 10.8509C26.2965 10.8906 26.1317 10.9261 25.9442 10.9574C25.7596 10.9858 25.5792 11.0114 25.4031 11.0341C25.2298 11.054 25.0891 11.071 24.9812 11.0852C24.7198 11.1193 24.4755 11.1747 24.2482 11.2514C24.0238 11.3253 23.842 11.4375 23.7028 11.5881C23.5664 11.7358 23.4982 11.9375 23.4982 12.1932C23.4982 12.5426 23.6275 12.8068 23.886 12.9858C24.1474 13.1619 24.4783 13.25 24.8789 13.25ZM29.5611 14V7.45455H30.5327V8.44318H30.6009C30.7202 8.11932 30.9361 7.85653 31.2486 7.65483C31.5611 7.45312 31.9134 7.35227 32.3054 7.35227C32.3793 7.35227 32.4716 7.35369 32.5824 7.35653C32.6932 7.35937 32.777 7.36364 32.8338 7.36932V8.39205C32.7997 8.38352 32.7216 8.37074 32.5994 8.35369C32.4801 8.33381 32.3537 8.32386 32.2202 8.32386C31.902 8.32386 31.6179 8.39062 31.3679 8.52415C31.1207 8.65483 30.9247 8.83665 30.7798 9.0696C30.6378 9.29972 30.5668 9.5625 30.5668 9.85795V14H29.5611ZM34.0259 14V7.45455H34.9975V8.44318H35.0657C35.185 8.11932 35.4009 7.85653 35.7134 7.65483C36.0259 7.45312 36.3782 7.35227 36.7702 7.35227C36.8441 7.35227 36.9364 7.35369 37.0472 7.35653C37.158 7.35937 37.2418 7.36364 37.2987 7.36932V8.39205C37.2646 8.38352 37.1864 8.37074 37.0643 8.35369C36.945 8.33381 36.8185 8.32386 36.685 8.32386C36.3668 8.32386 36.0827 8.39062 35.8327 8.52415C35.5856 8.65483 35.3896 8.83665 35.2447 9.0696C35.1026 9.29972 35.0316 9.5625 35.0316 9.85795V14H34.0259ZM40.9506 14.1364C40.3597 14.1364 39.8413 13.9957 39.3952 13.7145C38.9521 13.4332 38.6055 13.0398 38.3555 12.5341C38.1083 12.0284 37.9847 11.4375 37.9847 10.7614C37.9847 10.0795 38.1083 9.48437 38.3555 8.97585C38.6055 8.46733 38.9521 8.07244 39.3952 7.79119C39.8413 7.50994 40.3597 7.36932 40.9506 7.36932C41.5415 7.36932 42.0586 7.50994 42.5018 7.79119C42.9478 8.07244 43.2944 8.46733 43.5415 8.97585C43.7915 9.48437 43.9165 10.0795 43.9165 10.7614C43.9165 11.4375 43.7915 12.0284 43.5415 12.5341C43.2944 13.0398 42.9478 13.4332 42.5018 13.7145C42.0586 13.9957 41.5415 14.1364 40.9506 14.1364ZM40.9506 13.233C41.3995 13.233 41.7688 13.1179 42.0586 12.8878C42.3484 12.6577 42.5629 12.3551 42.7021 11.9801C42.8413 11.6051 42.9109 11.1989 42.9109 10.7614C42.9109 10.3239 42.8413 9.91619 42.7021 9.53835C42.5629 9.16051 42.3484 8.85511 42.0586 8.62216C41.7688 8.3892 41.3995 8.27273 40.9506 8.27273C40.5018 8.27273 40.1325 8.3892 39.8427 8.62216C39.5529 8.85511 39.3384 9.16051 39.1992 9.53835C39.06 9.91619 38.9904 10.3239 38.9904 10.7614C38.9904 11.1989 39.06 11.6051 39.1992 11.9801C39.3384 12.3551 39.5529 12.6577 39.8427 12.8878C40.1325 13.1179 40.5018 13.233 40.9506 13.233ZM46.4574 5.27273V14H45.4517V5.27273H46.4574ZM49.305 5.27273V14H48.2994V5.27273H49.305ZM53.0732 14.1534C52.6584 14.1534 52.282 14.0753 51.9439 13.919C51.6058 13.7599 51.3374 13.5312 51.1385 13.233C50.9396 12.9318 50.8402 12.5682 50.8402 12.142C50.8402 11.767 50.9141 11.4631 51.0618 11.2301C51.2095 10.9943 51.407 10.8097 51.6541 10.6761C51.9013 10.5426 52.174 10.4432 52.4723 10.3778C52.7734 10.3097 53.076 10.2557 53.38 10.2159C53.7777 10.1648 54.1001 10.1264 54.3473 10.1009C54.5973 10.0724 54.7791 10.0256 54.8928 9.96023C55.0092 9.89489 55.0675 9.78125 55.0675 9.61932V9.58523C55.0675 9.16477 54.9524 8.83807 54.7223 8.60511C54.495 8.37216 54.1499 8.25568 53.6868 8.25568C53.2067 8.25568 52.8303 8.3608 52.5575 8.57102C52.2848 8.78125 52.093 9.00568 51.9822 9.24432L51.0277 8.90341C51.1982 8.50568 51.4254 8.19602 51.7095 7.97443C51.9964 7.75 52.3089 7.59375 52.647 7.50568C52.9879 7.41477 53.3232 7.36932 53.6527 7.36932C53.8629 7.36932 54.1044 7.39489 54.3771 7.44602C54.6527 7.49432 54.9183 7.59517 55.174 7.74858C55.4325 7.90199 55.647 8.13352 55.8175 8.44318C55.9879 8.75284 56.0732 9.16761 56.0732 9.6875V14H55.0675V13.1136H55.0163C54.9482 13.2557 54.8345 13.4077 54.6754 13.5696C54.5163 13.7315 54.3047 13.8693 54.0405 13.983C53.7763 14.0966 53.4538 14.1534 53.0732 14.1534ZM53.2266 13.25C53.6243 13.25 53.9595 13.1719 54.2322 13.0156C54.5078 12.8594 54.7152 12.6577 54.8544 12.4105C54.9964 12.1634 55.0675 11.9034 55.0675 11.6307V10.7102C55.0249 10.7614 54.9311 10.8082 54.7862 10.8509C54.6442 10.8906 54.4794 10.9261 54.2919 10.9574C54.1072 10.9858 53.9268 11.0114 53.7507 11.0341C53.5774 11.054 53.4368 11.071 53.3288 11.0852C53.0675 11.1193 52.8232 11.1747 52.5959 11.2514C52.3714 11.3253 52.1896 11.4375 52.0504 11.5881C51.9141 11.7358 51.8459 11.9375 51.8459 12.1932C51.8459 12.5426 51.9751 12.8068 52.2337 12.9858C52.495 13.1619 52.826 13.25 53.2266 13.25ZM60.3803 14.1364C59.8349 14.1364 59.3533 13.9986 58.9357 13.723C58.5181 13.4446 58.1914 13.0526 57.9556 12.5469C57.7198 12.0384 57.6019 11.4375 57.6019 10.7443C57.6019 10.0568 57.7198 9.46023 57.9556 8.95455C58.1914 8.44886 58.5195 8.05824 58.94 7.78267C59.3604 7.5071 59.8462 7.36932 60.3974 7.36932C60.8235 7.36932 61.1602 7.44034 61.4073 7.58239C61.6573 7.72159 61.8477 7.88068 61.9783 8.05966C62.1119 8.2358 62.2156 8.38068 62.2894 8.49432H62.3746V5.27273H63.3803V14H62.4087V12.9943H62.2894C62.2156 13.1136 62.1104 13.2642 61.9741 13.446C61.8377 13.625 61.6431 13.7855 61.3903 13.9276C61.1374 14.0668 60.8008 14.1364 60.3803 14.1364ZM60.5167 13.233C60.9201 13.233 61.261 13.1278 61.5394 12.9176C61.8178 12.7045 62.0295 12.4105 62.1744 12.0355C62.3192 11.6577 62.3917 11.2216 62.3917 10.7273C62.3917 10.2386 62.3207 9.81108 62.1786 9.4446C62.0366 9.07528 61.8263 8.78835 61.5479 8.58381C61.2695 8.37642 60.9258 8.27273 60.5167 8.27273C60.0906 8.27273 59.7354 8.3821 59.4513 8.60085C59.1701 8.81676 58.9585 9.1108 58.8164 9.48295C58.6772 9.85227 58.6076 10.267 58.6076 10.7273C58.6076 11.1932 58.6786 11.6165 58.8207 11.9972C58.9656 12.375 59.1786 12.6761 59.4599 12.9006C59.744 13.1222 60.0962 13.233 60.5167 13.233ZM68.021 14.1364C67.43 14.1364 66.9116 13.9957 66.4656 13.7145C66.0224 13.4332 65.6758 13.0398 65.4258 12.5341C65.1786 12.0284 65.055 11.4375 65.055 10.7614C65.055 10.0795 65.1786 9.48437 65.4258 8.97585C65.6758 8.46733 66.0224 8.07244 66.4656 7.79119C66.9116 7.50994 67.43 7.36932 68.021 7.36932C68.6119 7.36932 69.1289 7.50994 69.5721 7.79119C70.0181 8.07244 70.3647 8.46733 70.6119 8.97585C70.8619 9.48437 70.9869 10.0795 70.9869 10.7614C70.9869 11.4375 70.8619 12.0284 70.6119 12.5341C70.3647 13.0398 70.0181 13.4332 69.5721 13.7145C69.1289 13.9957 68.6119 14.1364 68.021 14.1364ZM68.021 13.233C68.4698 13.233 68.8391 13.1179 69.1289 12.8878C69.4187 12.6577 69.6332 12.3551 69.7724 11.9801C69.9116 11.6051 69.9812 11.1989 69.9812 10.7614C69.9812 10.3239 69.9116 9.91619 69.7724 9.53835C69.6332 9.16051 69.4187 8.85511 69.1289 8.62216C68.8391 8.3892 68.4698 8.27273 68.021 8.27273C67.5721 8.27273 67.2028 8.3892 66.913 8.62216C66.6232 8.85511 66.4087 9.16051 66.2695 9.53835C66.1303 9.91619 66.0607 10.3239 66.0607 10.7614C66.0607 11.1989 66.1303 11.6051 66.2695 11.9801C66.4087 12.3551 66.6232 12.6577 66.913 12.8878C67.2028 13.1179 67.5721 13.233 68.021 13.233ZM75.897 16.4545V7.45455H76.8686V8.49432H76.9879C77.0618 8.38068 77.1641 8.2358 77.2947 8.05966C77.4283 7.88068 77.6186 7.72159 77.8658 7.58239C78.1158 7.44034 78.4538 7.36932 78.88 7.36932C79.4311 7.36932 79.9169 7.5071 80.3374 7.78267C80.7578 8.05824 81.0859 8.44886 81.3217 8.95455C81.5575 9.46023 81.6754 10.0568 81.6754 10.7443C81.6754 11.4375 81.5575 12.0384 81.3217 12.5469C81.0859 13.0526 80.7592 13.4446 80.3416 13.723C79.924 13.9986 79.4425 14.1364 78.897 14.1364C78.4766 14.1364 78.1399 14.0668 77.8871 13.9276C77.6342 13.7855 77.4396 13.625 77.3033 13.446C77.1669 13.2642 77.0618 13.1136 76.9879 12.9943H76.9027V16.4545H75.897ZM76.8857 10.7273C76.8857 11.2216 76.9581 11.6577 77.103 12.0355C77.2479 12.4105 77.4595 12.7045 77.7379 12.9176C78.0163 13.1278 78.3572 13.233 78.7607 13.233C79.1811 13.233 79.532 13.1222 79.8132 12.9006C80.0973 12.6761 80.3104 12.375 80.4524 11.9972C80.5973 11.6165 80.6697 11.1932 80.6697 10.7273C80.6697 10.267 80.5987 9.85227 80.4567 9.48295C80.3175 9.1108 80.1058 8.81676 79.8217 8.60085C79.5405 8.3821 79.1868 8.27273 78.7607 8.27273C78.3516 8.27273 78.0078 8.37642 77.7294 8.58381C77.451 8.78835 77.2408 9.07528 77.0987 9.4446C76.9567 9.81108 76.8857 10.2386 76.8857 10.7273ZM85.8686 14.1364C85.2777 14.1364 84.7592 13.9957 84.3132 13.7145C83.87 13.4332 83.5234 13.0398 83.2734 12.5341C83.0263 12.0284 82.9027 11.4375 82.9027 10.7614C82.9027 10.0795 83.0263 9.48437 83.2734 8.97585C83.5234 8.46733 83.87 8.07244 84.3132 7.79119C84.7592 7.50994 85.2777 7.36932 85.8686 7.36932C86.4595 7.36932 86.9766 7.50994 87.4197 7.79119C87.8658 8.07244 88.2124 8.46733 88.4595 8.97585C88.7095 9.48437 88.8345 10.0795 88.8345 10.7614C88.8345 11.4375 88.7095 12.0284 88.4595 12.5341C88.2124 13.0398 87.8658 13.4332 87.4197 13.7145C86.9766 13.9957 86.4595 14.1364 85.8686 14.1364ZM85.8686 13.233C86.3175 13.233 86.6868 13.1179 86.9766 12.8878C87.2663 12.6577 87.4808 12.3551 87.62 11.9801C87.7592 11.6051 87.8288 11.1989 87.8288 10.7614C87.8288 10.3239 87.7592 9.91619 87.62 9.53835C87.4808 9.16051 87.2663 8.85511 86.9766 8.62216C86.6868 8.3892 86.3175 8.27273 85.8686 8.27273C85.4197 8.27273 85.0504 8.3892 84.7607 8.62216C84.4709 8.85511 84.2564 9.16051 84.1172 9.53835C83.978 9.91619 83.9084 10.3239 83.9084 10.7614C83.9084 11.1989 83.978 11.6051 84.1172 11.9801C84.2564 12.3551 84.4709 12.6577 84.7607 12.8878C85.0504 13.1179 85.4197 13.233 85.8686 13.233ZM90.3697 14V7.45455H91.3413V8.44318H91.4094C91.5288 8.11932 91.7447 7.85653 92.0572 7.65483C92.3697 7.45312 92.7219 7.35227 93.114 7.35227C93.1879 7.35227 93.2802 7.35369 93.391 7.35653C93.5018 7.35937 93.5856 7.36364 93.6424 7.36932V8.39205C93.6083 8.38352 93.5302 8.37074 93.408 8.35369C93.2887 8.33381 93.1623 8.32386 93.0288 8.32386C92.7106 8.32386 92.4265 8.39062 92.1765 8.52415C91.9293 8.65483 91.7333 8.83665 91.5884 9.0696C91.4464 9.29972 91.3754 9.5625 91.3754 9.85795V14H90.3697Z" fill="#334155"/>
<path fill-rule="evenodd" clip-rule="evenodd" d="M106.089 7.25817C108.003 7.25817 109.554 5.72104 109.554 3.8249C109.554 3.70432 109.548 3.58519 109.535 3.46781L109.536 3.46785C109.534 3.4502 109.533 3.43233 109.533 3.41426C109.533 3.09719 109.793 2.84015 110.112 2.84015L110.12 2.84016H112.179L112.183 2.84015L112.187 2.84016H112.192C112.508 2.84516 112.762 3.10031 112.762 3.41426C112.762 3.53392 112.725 3.64503 112.662 3.737C112.66 3.74003 112.658 3.74305 112.656 3.74604L105.445 13.9384L105.446 13.9396C104.926 14.5401 104.612 15.3207 104.612 16.174C104.612 18.0702 106.163 19.6073 108.077 19.6073C109.29 19.6073 110.358 18.989 110.977 18.0531L119.602 5.88677C120.038 5.31264 120.296 4.59866 120.296 3.8249C120.296 1.93764 118.76 0.405937 116.859 0.391632C116.853 0.391586 116.847 0.391602 116.841 0.391617C116.838 0.391624 116.835 0.391632 116.832 0.391632H106.116C106.11 0.391586 106.104 0.391602 106.098 0.391617C106.095 0.391624 106.092 0.391632 106.089 0.391632C104.176 0.391632 102.625 1.92876 102.625 3.8249C102.625 5.72104 104.176 7.25817 106.089 7.25817ZM117.745 19.6072H112.088L116.956 12.7407H117.745C117.75 12.7407 117.756 12.7407 117.762 12.7407C117.765 12.7407 117.767 12.7407 117.77 12.7407C119.672 12.7541 121.209 14.2862 121.209 16.174C121.209 18.0618 119.672 19.5938 117.77 19.6072C117.764 19.6073 117.759 19.6073 117.753 19.6072C117.75 19.6072 117.748 19.6072 117.745 19.6072ZM106.509 19.6072L106.491 19.5932V19.6072H106.509Z" fill="#334155"/>
<path d="M130.968 13.348H135.364V15H128.7V13.488L133.068 6.88H128.7V5.228H135.364V6.74L130.968 13.348ZM144.354 7.244V15H142.38V14.02C142.128 14.356 141.797 14.622 141.386 14.818C140.985 15.0047 140.546 15.098 140.07 15.098C139.464 15.098 138.927 14.972 138.46 14.72C137.994 14.4587 137.625 14.0807 137.354 13.586C137.093 13.082 136.962 12.4847 136.962 11.794V7.244H138.922V11.514C138.922 12.13 139.076 12.606 139.384 12.942C139.692 13.2687 140.112 13.432 140.644 13.432C141.186 13.432 141.61 13.2687 141.918 12.942C142.226 12.606 142.38 12.13 142.38 11.514V7.244H144.354ZM150.586 7.132C151.51 7.132 152.257 7.426 152.826 8.014C153.396 8.59267 153.68 9.40467 153.68 10.45V15H151.72V10.716C151.72 10.1 151.566 9.62867 151.258 9.302C150.95 8.966 150.53 8.798 149.998 8.798C149.457 8.798 149.028 8.966 148.71 9.302C148.402 9.62867 148.248 10.1 148.248 10.716V15H146.288V7.244H148.248V8.21C148.51 7.874 148.841 7.61267 149.242 7.426C149.653 7.23 150.101 7.132 150.586 7.132ZM156.538 6.32C156.193 6.32 155.903 6.21267 155.67 5.998C155.446 5.774 155.334 5.49867 155.334 5.172C155.334 4.84533 155.446 4.57467 155.67 4.36C155.903 4.136 156.193 4.024 156.538 4.024C156.883 4.024 157.168 4.136 157.392 4.36C157.625 4.57467 157.742 4.84533 157.742 5.172C157.742 5.49867 157.625 5.774 157.392 5.998C157.168 6.21267 156.883 6.32 156.538 6.32ZM157.504 7.244V15H155.544V7.244H157.504ZM158.937 11.094C158.937 10.31 159.091 9.61467 159.399 9.008C159.716 8.40133 160.145 7.93467 160.687 7.608C161.228 7.28133 161.83 7.118 162.493 7.118C162.997 7.118 163.477 7.23 163.935 7.454C164.392 7.66867 164.756 7.958 165.027 8.322V4.64H167.015V15H165.027V13.852C164.784 14.2347 164.443 14.5427 164.005 14.776C163.566 15.0093 163.057 15.126 162.479 15.126C161.825 15.126 161.228 14.958 160.687 14.622C160.145 14.286 159.716 13.8147 159.399 13.208C159.091 12.592 158.937 11.8873 158.937 11.094ZM165.041 11.122C165.041 10.646 164.947 10.24 164.761 9.904C164.574 9.55867 164.322 9.29733 164.005 9.12C163.687 8.93333 163.347 8.84 162.983 8.84C162.619 8.84 162.283 8.92867 161.975 9.106C161.667 9.28333 161.415 9.54467 161.219 9.89C161.032 10.226 160.939 10.6273 160.939 11.094C160.939 11.5607 161.032 11.9713 161.219 12.326C161.415 12.6713 161.667 12.9373 161.975 13.124C162.292 13.3107 162.628 13.404 162.983 13.404C163.347 13.404 163.687 13.3153 164.005 13.138C164.322 12.9513 164.574 12.69 164.761 12.354C164.947 12.0087 165.041 11.598 165.041 11.122ZM168.425 11.094C168.425 10.31 168.579 9.61467 168.887 9.008C169.204 8.40133 169.629 7.93467 170.161 7.608C170.702 7.28133 171.304 7.118 171.967 7.118C172.546 7.118 173.05 7.23467 173.479 7.468C173.918 7.70133 174.268 7.99533 174.529 8.35V7.244H176.503V15H174.529V13.866C174.277 14.23 173.927 14.5333 173.479 14.776C173.04 15.0093 172.532 15.126 171.953 15.126C171.3 15.126 170.702 14.958 170.161 14.622C169.629 14.286 169.204 13.8147 168.887 13.208C168.579 12.592 168.425 11.8873 168.425 11.094ZM174.529 11.122C174.529 10.646 174.436 10.24 174.249 9.904C174.062 9.55867 173.81 9.29733 173.493 9.12C173.176 8.93333 172.835 8.84 172.471 8.84C172.107 8.84 171.771 8.92867 171.463 9.106C171.155 9.28333 170.903 9.54467 170.707 9.89C170.52 10.226 170.427 10.6273 170.427 11.094C170.427 11.5607 170.52 11.9713 170.707 12.326C170.903 12.6713 171.155 12.9373 171.463 13.124C171.78 13.3107 172.116 13.404 172.471 13.404C172.835 13.404 173.176 13.3153 173.493 13.138C173.81 12.9513 174.062 12.69 174.249 12.354C174.436 12.0087 174.529 11.598 174.529 11.122Z" fill="#334155"/>
</svg>
