<svg width="20" height="20" viewBox="0 0 20 20" fill="none" xmlns="http://www.w3.org/2000/svg">
<path fill-rule="evenodd" clip-rule="evenodd" d="M18.6283 1.11546C18.8315 1.22422 18.9584 1.43601 18.9584 1.6665V14.9998C18.9584 15.2088 18.854 15.404 18.6801 15.5199L13.6801 18.8532C13.4831 18.9845 13.2289 18.9933 13.0233 18.8758L7.50008 15.7197L1.97683 18.8758C1.7834 18.9864 1.54574 18.9856 1.35304 18.8737C1.16035 18.7619 1.04175 18.556 1.04175 18.3332V4.99984C1.04175 4.77555 1.16193 4.56846 1.35666 4.45719L7.18999 1.12385C7.38214 1.01406 7.61802 1.01406 7.81017 1.12385L13.3081 4.26554L17.9867 1.14647C18.1785 1.01862 18.4251 1.0067 18.6283 1.11546ZM12.7084 5.36254L8.12508 2.74349V14.6371L12.7084 17.2562V5.36254ZM13.9584 17.1653L17.7084 14.6653V2.83433L13.9584 5.33433V17.1653ZM6.87508 14.6371V2.74349L2.29175 5.36254V17.2562L6.87508 14.6371Z" fill="#4F46E5"/>
</svg>
